<svg width="845" height="845" viewBox="0 0 845 845" fill="none" xmlns="http://www.w3.org/2000/svg">
<path d="M701.846 63.6396L781.36 143.154C816.508 178.301 816.508 235.286 781.36 270.433L629.293 422.5L781.36 574.567C816.508 609.714 816.508 666.699 781.36 701.846L701.846 781.36C666.699 816.508 609.714 816.508 574.567 781.36L422.5 629.293L270.433 781.36C235.286 816.508 178.301 816.508 143.154 781.36L63.6396 701.846C28.4924 666.699 28.4924 609.714 63.6396 574.567L215.707 422.5L63.6396 270.433C28.4924 235.286 28.4924 178.301 63.6396 143.154L143.154 63.6396C178.301 28.4924 235.286 28.4924 270.433 63.6396L422.5 215.707L574.567 63.6396C609.714 28.4924 666.699 28.4924 701.846 63.6396Z" fill="white"/>
<path d="M629.293 422.5L781.36 270.433C816.508 235.286 816.508 178.301 781.36 143.154L701.846 63.6396C666.699 28.4924 609.714 28.4924 574.567 63.6396L422.5 215.707M629.293 422.5L781.36 574.567C816.508 609.714 816.508 666.699 781.36 701.846L701.846 781.36C666.699 816.508 609.714 816.508 574.567 781.36L422.5 629.293M629.293 422.5L422.5 629.293M422.5 215.707L270.433 63.6396C235.286 28.4924 178.301 28.4924 143.154 63.6396L63.6396 143.154C28.4924 178.301 28.4924 235.286 63.6396 270.433L215.707 422.5M422.5 215.707L215.707 422.5M215.707 422.5L63.6396 574.567C28.4924 609.714 28.4924 666.699 63.6396 701.846L143.154 781.36C178.301 816.508 235.286 816.508 270.433 781.36L422.5 629.293M515.758 645.003L514.643 643.889C507.505 636.751 507.505 625.178 514.643 618.04V618.04C521.781 610.902 533.354 610.902 540.492 618.04L541.607 619.154C548.745 626.292 548.745 637.865 541.607 645.003V645.003C534.469 652.141 522.896 652.141 515.758 645.003ZM618.04 514.643V514.643C625.178 507.505 636.751 507.505 643.889 514.643L645.003 515.758C652.141 522.896 652.141 534.469 645.003 541.607V541.607C637.865 548.745 626.292 548.745 619.154 541.607L618.04 540.492C610.902 533.354 610.902 521.781 618.04 514.643ZM751.743 622.497L752.857 623.611C759.995 630.749 759.995 642.322 752.857 649.46V649.46C745.719 656.598 734.146 656.598 727.007 649.46L725.893 648.346C718.755 641.208 718.755 629.635 725.893 622.497V622.497C733.031 615.359 744.604 615.359 751.743 622.497ZM569.684 698.93L568.57 697.816C561.432 690.678 561.432 679.105 568.57 671.967V671.967C575.708 664.829 587.281 664.829 594.419 671.967L595.533 673.081C602.671 680.219 602.671 691.792 595.533 698.93V698.93C588.395 706.068 576.822 706.068 569.684 698.93ZM698.93 595.533V595.533C691.792 602.671 680.219 602.671 673.081 595.533L671.967 594.419C664.829 587.281 664.829 575.708 671.967 568.57V568.57C679.105 561.432 690.678 561.432 697.816 568.57L698.93 569.684C706.068 576.822 706.068 588.395 698.93 595.533ZM647.232 621.382L646.117 620.268C638.979 613.13 627.406 613.13 620.268 620.268V620.268C613.13 627.406 613.13 638.979 620.268 646.117L621.382 647.232C628.521 654.37 640.094 654.37 647.232 647.232V647.232C654.37 640.094 654.37 628.521 647.232 621.382ZM92.1433 195.54V195.54C99.2814 188.402 110.854 188.402 117.992 195.54L119.107 196.654C126.245 203.792 126.245 215.365 119.107 222.503V222.503C111.969 229.641 100.396 229.641 93.2575 222.503L92.1433 221.389C85.0053 214.251 85.0053 202.678 92.1433 195.54ZM146.07 249.467V249.467C153.208 242.329 164.781 242.329 171.919 249.467L173.033 250.581C180.171 257.719 180.171 269.292 173.033 276.43V276.43C165.895 283.568 154.322 283.568 147.184 276.43L146.07 275.316C138.932 268.178 138.932 256.605 146.07 249.467ZM330.357 226.96V226.96C337.495 219.822 337.495 208.249 330.357 201.111L329.243 199.997C322.104 192.859 310.531 192.859 303.393 199.997V199.997C296.255 207.135 296.255 218.708 303.393 225.846L304.508 226.96C311.646 234.098 323.219 234.098 330.357 226.96ZM276.43 173.033V173.033C283.568 165.895 283.568 154.322 276.43 147.184L275.316 146.07C268.178 138.932 256.605 138.932 249.467 146.07V146.07C242.329 153.208 242.329 164.781 249.467 171.919L250.581 173.033C257.719 180.171 269.292 180.171 276.43 173.033ZM195.54 92.1433V92.1433C188.402 99.2814 188.402 110.854 195.54 117.992L196.654 119.107C203.792 126.245 215.365 126.245 222.503 119.107V119.107C229.641 111.969 229.641 100.396 222.503 93.2575L221.389 92.1433C214.251 85.0053 202.678 85.0053 195.54 92.1433ZM223.617 197.768L224.732 198.883C231.87 206.021 231.87 217.594 224.732 224.732V224.732C217.594 231.87 206.021 231.87 198.883 224.732L197.768 223.617C190.63 216.479 190.63 204.906 197.768 197.768V197.768C204.906 190.63 216.479 190.63 223.617 197.768ZM305.196 384.71L384.71 305.196C419.857 270.048 476.842 270.048 511.989 305.196L539.804 333.011C574.952 368.158 574.952 425.143 539.804 460.29L460.29 539.804C425.143 574.952 368.158 574.952 333.011 539.804L305.196 511.989C270.048 476.842 270.048 419.857 305.196 384.71Z" stroke="#AFAFAF" stroke-width="27" stroke-linecap="round"/>
<path d="M476.319 424.62L450.47 450.469L437.545 463.394V463.394C430.407 470.532 430.407 482.105 437.545 489.243L443.575 495.273M475.155 371.758V393.274M475.155 371.758V350.242M475.155 371.758H496.671M475.155 371.758H453.639M371.758 475.155V496.671M371.758 475.155H393.275M371.758 475.155V453.639M371.758 475.155H350.242" stroke="#AFAFAF" stroke-width="27" stroke-linecap="round"/>
</svg>
